<!-- Generator: Adobe Illustrator 19.2.1, SVG Export Plug-In  -->
<svg version="1.1"
	 xmlns="http://www.w3.org/2000/svg" xmlns:xlink="http://www.w3.org/1999/xlink" xmlns:a="http://ns.adobe.com/AdobeSVGViewerExtensions/3.0/"
	 x="0px" y="0px" width="313px" height="86.6px" viewBox="0 0 313 86.6" style="enable-background:new 0 0 313 86.6;"
	 xml:space="preserve">
<style type="text/css">
	.st0{fill:#00A0C6;}
	.st1{fill:#99CF16;}
</style>
<defs>
</defs>
<path class="st0" d="M80.8,0c8.8,0,9.7,14.5,3,33.8c-2.4-2.4-5-4.6-7.6-6.7c-0.2-0.1-0.4-0.3-0.6-0.4c1.5-7.9,0.2-13.2-4-13.2
	c-3.6,0-7.3,3.4-9.7,5.7c4.6,2.3,8.9,5.2,12.9,8.4C81.6,33,87.6,39.3,91.2,45h-0.1c-8-7.7-17.1-14.3-27-19.5
	c-1.8-0.9-3.7-1.7-5.5-2.5c-0.3,0.3-0.6,0.7-0.9,1.1c-0.7-0.3-1.5-0.5-2.2-0.8c-0.4-0.2-0.9-0.3-1.3-0.5l0.9-1.2
	c-2.3-0.9-4.7-1.7-7.1-2.5c-3.4-1-4-2.3-3.1-3.4s4.6-1.3,9.5,0.4c1.2,0.6,2.5,1,3.8,1.4C66.3,6.8,74.8,0,80.8,0L80.8,0L80.8,0z
	 M37.4,29.4c10.9,0.9,21.5,3.6,31.5,8c10.8,4.8,20.9,11.4,27.5,17.7c-0.1,0-0.1,0-0.1,0.1v0c-6.6-3.7-13.5-7-20.5-9.9
	c-7.1-2.9-14.4-5.2-21.9-6.9c-1.5-0.3-3-0.5-4.5-0.8l0,0c-0.2,0.5-0.4,1-0.7,1.4c-0.6-0.1-1.3-0.1-1.9-0.2s-1.1-0.1-1.7-0.2
	c0.3-0.5,0.5-1,0.8-1.5c-1.3-0.2-2.6-0.3-3.9-0.5c-4-0.5-8.1-0.8-12.1-1c-5-0.2-6.2-1.8-5.4-3.6C25.3,30.2,30.2,28.9,37.4,29.4
	L37.4,29.4L37.4,29.4z M46.8,21.9c9.1,2,17.9,5.6,25.8,10.6c8.7,5.4,16.7,12,21.7,18.2l-0.1,0.1c-5.2-4-10.8-7.6-16.5-10.8
	c-5.8-3.3-11.8-6.1-18-8.4c-2-0.6-3.9-1.3-5.9-1.8c-0.2,0.4-0.5,0.8-0.7,1.2c-0.7-0.2-1.3-0.3-2-0.5c-0.5-0.1-1-0.2-1.4-0.3
	c0.3-0.4,0.5-0.9,0.8-1.3c-3.5-0.9-7.1-1.7-10.7-2.3c-4.2-0.7-5.1-2.1-4.2-3.6C36.4,21.3,40.8,20.7,46.8,21.9L46.8,21.9L46.8,21.9z"
	/>
<path d="M138.5,25.5l-0.3,4.7c-2-0.6-4-1.1-6-1.4c-2-0.3-4-0.5-6-0.5c-6.4,0-11.4,1.4-15.2,4.1c-3.6,2.5-5.8,6.7-5.6,11.1
	c-0.1,4.4,2,8.6,5.6,11.1c3.7,2.7,8.8,4.1,15.3,4.1c4,0,8-0.5,11.8-1.7l0.2,4.9c-1.9,0.5-3.9,0.8-5.9,1c-2.1,0.2-4.3,0.3-6.7,0.3
	c-8.7,0-15.6-1.7-20.6-5.2c-4.8-3.1-7.6-8.5-7.5-14.2c0-6.1,2.6-10.9,7.7-14.5s12-5.4,20.7-5.4c2.2,0,4.4,0.1,6.6,0.4
	C134.6,24.5,136.6,24.9,138.5,25.5L138.5,25.5L138.5,25.5z M159.8,49.2c-4.3,0-7.6,0.5-9.9,1.5c-2.3,1-3.4,2.4-3.4,4.3
	c0,1.4,0.7,2.7,1.9,3.5c1.5,1,3.3,1.5,5.1,1.4c2.8,0.1,5.5-0.7,7.8-2.3c1.9-1.5,3-3.8,2.9-6.2v-2.1L159.8,49.2L159.8,49.2
	L159.8,49.2z M171.2,46v17.2h-6.4v-4.7c-1.5,1.7-3.4,3-5.5,3.9c-2.4,0.9-5,1.3-7.6,1.3c-3.1,0.1-6.2-0.7-8.9-2.3
	c-2.1-1.3-3.4-3.5-3.4-6c0-3.1,1.7-5.4,5.1-7.1s8.3-2.5,14.8-2.5h5v-0.6c0.1-2-0.9-4-2.5-5.2c-2.1-1.3-4.5-1.9-7-1.8
	c-1.8,0-3.5,0.2-5.2,0.6c-1.9,0.4-3.7,1-5.5,1.8l-0.1-4.3c2-0.7,4-1.2,6.1-1.5c2.3-0.3,4.5-0.5,6.8-0.5c4.8,0,8.3,1,10.7,3
	C170,39.1,171.2,42.1,171.2,46L171.2,46L171.2,46z M191.6,38.3c-2.8-0.2-5.4,0.9-7.4,2.8c-1.9,2.1-2.9,4.8-2.8,7.6
	c0,3.2,0.9,5.7,2.8,7.5c2,1.9,4.7,2.9,7.4,2.8c2.9,0.1,5.7-0.9,7.8-2.8c2-1.9,3.1-4.5,3-7.3c0.2-2.9-0.9-5.7-2.9-7.7
	C197.4,39.2,194.6,38.1,191.6,38.3L191.6,38.3L191.6,38.3z M203.1,39.9v-5.1h6.5v25.1c0,5.2-1.6,9.1-4.8,11.7s-8,3.9-14.3,3.9
	c-2.2,0-4.5-0.1-6.7-0.5c-2.1-0.3-4.2-0.7-6.2-1.3l0.5-4.7c1.9,0.7,3.9,1.3,5.9,1.7c1.8,0.4,3.6,0.6,5.4,0.6c4.3,0,7.6-0.9,9.9-2.7
	c2.4-1.9,3.7-4.8,3.5-7.8v-3.4c-1.5,1.9-3.4,3.3-5.6,4.3c-2.3,1-4.8,1.5-7.3,1.4c-4.8,0-8.6-1.3-11.6-3.9c-3-2.6-4.6-6.4-4.4-10.4
	c-0.2-4,1.4-8,4.4-10.7c2.9-2.7,6.8-4,11.7-4c2.6,0,5.2,0.4,7.7,1.4C199.9,36.5,201.7,38,203.1,39.9L203.1,39.9L203.1,39.9z
	 M246.2,48.1v2.1H219c0.2,2.8,1.6,5.4,3.9,7.1c2.4,1.7,5.6,2.5,9.6,2.5c1.8,0,3.6-0.2,5.3-0.5c1.8-0.4,3.6-0.9,5.4-1.6v4.5
	c-1.8,0.5-3.7,0.9-5.6,1.2c-2.2,0.3-4.4,0.4-6.6,0.4c-5.8,0-10.4-1.4-13.8-4.1c-3.4-2.7-5.3-6.8-5.1-11.1c-0.2-4.1,1.7-8.1,5-10.6
	c3.3-2.7,7.6-4,13-4c5,0,9,1.2,11.9,3.7C244.9,40.4,246.4,44.2,246.2,48.1L246.2,48.1z M239.6,46.8c-0.1-2.5-1.1-4.8-2.9-6.5
	c-1.9-1.6-4.4-2.4-6.9-2.3c-2.6-0.1-5.1,0.8-7.1,2.4c-1.9,1.6-3.1,3.9-3.4,6.4L239.6,46.8L239.6,46.8z M278.5,35.8l-0.6,4.5
	c-1.3-0.5-2.6-0.9-3.9-1.1c-1.4-0.3-2.9-0.4-4.4-0.4c-4,0-7.2,0.9-9.6,2.8c-2.4,1.7-3.8,4.4-3.7,7.3c-0.1,2.9,1.2,5.7,3.6,7.4
	c2.4,1.9,5.6,2.8,9.5,2.8c1.5,0,3-0.1,4.4-0.4c1.5-0.3,3-0.7,4.5-1.2l0.4,4.6c-1.6,0.4-3.3,0.8-5,1c-1.8,0.2-3.5,0.3-5.3,0.3
	c-5.9,0-10.6-1.3-14.2-3.9c-3.4-2.4-5.4-6.3-5.3-10.5c-0.1-4.2,2-8.2,5.5-10.5c3.7-2.6,8.5-4,14.6-4c1.7,0,3.4,0.1,5.1,0.3
	C275.6,35.1,277.1,35.4,278.5,35.8L278.5,35.8L278.5,35.8z M312.9,48.1v2.1h-27.2c0.2,2.8,1.6,5.4,3.9,7.1c2.4,1.7,5.6,2.5,9.6,2.5
	c1.8,0,3.6-0.2,5.3-0.5c1.8-0.4,3.6-0.9,5.4-1.6v4.5c-1.8,0.5-3.7,0.9-5.6,1.2c-2.2,0.3-4.4,0.4-6.6,0.4c-5.8,0-10.4-1.4-13.8-4.1
	c-3.4-2.7-5.3-6.8-5.1-11.1c-0.2-4.1,1.7-8.1,5-10.6c3.3-2.7,7.6-4,13-4c5,0,9,1.2,11.9,3.7C311.6,40.4,313.1,44.2,312.9,48.1
	L312.9,48.1z M306.2,46.8c-0.1-2.5-1.1-4.8-2.9-6.5c-1.9-1.6-4.4-2.4-6.9-2.3c-2.6-0.1-5.1,0.8-7.1,2.4c-1.9,1.6-3.1,3.9-3.4,6.4
	L306.2,46.8L306.2,46.8z"/>
<path class="st1" d="M15.6,51.8c14.2-2.5,28.7-2.9,43.1-1.3c15.2,1.9,30.1,6.1,40.8,11.5c0,0.1,0,0.1-0.1,0.1l0,0
	c-9.6-2.1-19.4-3.5-29.2-4.4c-9-0.9-18.1-1-27.1-0.5c-0.6,6.2,0.8,10.1,4.4,10.1c3.4,0,8-3.5,12.6-9c3.7,0.1,7.5,0.4,11.2,0.7h0.3
	C61.7,75.1,49.8,86.6,42,86.6c-8.1,0-9.5-12.2-4.5-29l0,0c-4.5,0.5-8.9,1-13.4,1.7c-5.3,0.8-10.6,1.8-15.9,2.8
	c-6.4,1.3-8.6-0.3-8.2-2.8C0.4,56.5,6.3,53.5,15.6,51.8L15.6,51.8L15.6,51.8z M26.2,39.4C39,38.7,51.7,39.9,64,43.1
	c13.1,3.6,25.6,9.5,34.3,15.7l-0.1,0.1c-8.2-3.1-16.5-5.7-25-7.9c-8.6-2.2-17.4-3.5-26.3-4.1h-1.3c-0.2,0.5-0.3,1-0.5,1.5h-4.3
	c0.2-0.5,0.4-1.1,0.6-1.6l0,0c-2.9,0-5.8,0-8.7,0.1c-4.7,0.1-9.5,0.4-14.2,0.8c-5.8,0.4-7.4-1.2-6.8-3.4
	C12.3,41.9,17.8,39.9,26.2,39.4L26.2,39.4L26.2,39.4z"/>
</svg>